<svg xmlns="http://www.w3.org/2000/svg" width="120.732" height="35" viewBox="0 0 120.732 35">
  <g id="Grupo_538" data-name="Grupo 538" transform="translate(-25.214 -27.845)">
    <g id="Grupo_4" data-name="Grupo 4" transform="translate(83.671 34.497)">
      <path id="Trazado_29" data-name="Trazado 29" d="M-407.4,288.41q.781-.21,2.062-.447a16.491,16.491,0,0,1,2.965-.236,5.218,5.218,0,0,1,2.05.355,3.615,3.615,0,0,1,1.391,1.038q.17-.131.537-.368a5.77,5.77,0,0,1,.9-.46,9.117,9.117,0,0,1,1.2-.394,5.627,5.627,0,0,1,1.415-.171,5.392,5.392,0,0,1,2.391.46,3.513,3.513,0,0,1,1.452,1.3,5.314,5.314,0,0,1,.708,2,16.219,16.219,0,0,1,.183,2.524v7.678h-2.269v-7.152a16.854,16.854,0,0,0-.11-2.077,4.25,4.25,0,0,0-.415-1.446,1.976,1.976,0,0,0-.83-.855,2.906,2.906,0,0,0-1.354-.276,4.7,4.7,0,0,0-1.891.329,3.645,3.645,0,0,0-1.013.592,9.7,9.7,0,0,1,.293,1.5,14.409,14.409,0,0,1,.1,1.709v7.678h-2.27v-7.152a15.167,15.167,0,0,0-.122-2.077,4.425,4.425,0,0,0-.427-1.446,1.973,1.973,0,0,0-.83-.855,2.845,2.845,0,0,0-1.33-.276q-.342,0-.732.026t-.744.066q-.354.039-.646.092c-.2.035-.326.062-.391.079v11.543h-2.27Z" transform="translate(407.402 -281.284)" fill="#096dd9"/>
      <path id="Trazado_30" data-name="Trazado 30" d="M-345.768,275.241a1.4,1.4,0,0,1-1.037-.434,1.6,1.6,0,0,1-.427-1.17,1.6,1.6,0,0,1,.427-1.17,1.4,1.4,0,0,1,1.037-.434,1.4,1.4,0,0,1,1.037.434,1.6,1.6,0,0,1,.427,1.17,1.6,1.6,0,0,1-.427,1.17A1.4,1.4,0,0,1-345.768,275.241Zm1.147,16.145h-2.27V277.712h2.27Z" transform="translate(367.901 -270.982)" fill="#096dd9"/>
      <path id="Trazado_31" data-name="Trazado 31" d="M-321.418,269.392l2.269-.421v20.01q-.781.237-2,.473a14.864,14.864,0,0,1-2.806.237,6.662,6.662,0,0,1-2.636-.5,5.627,5.627,0,0,1-2-1.42,6.371,6.371,0,0,1-1.281-2.248,9.237,9.237,0,0,1-.451-2.984,10.411,10.411,0,0,1,.379-2.892,6.654,6.654,0,0,1,1.11-2.261,5.105,5.105,0,0,1,1.793-1.473,5.4,5.4,0,0,1,2.428-.526,5.51,5.51,0,0,1,1.94.316,5.961,5.961,0,0,1,1.257.6Zm0,9.2a4.606,4.606,0,0,0-1.2-.71,4.217,4.217,0,0,0-1.708-.342,3.435,3.435,0,0,0-1.672.381,3.144,3.144,0,0,0-1.134,1.052,4.622,4.622,0,0,0-.635,1.591,9.5,9.5,0,0,0-.2,1.972,5.572,5.572,0,0,0,1.1,3.694,3.638,3.638,0,0,0,2.928,1.3,10.849,10.849,0,0,0,1.55-.092,6.927,6.927,0,0,0,.964-.2Z" transform="translate(356.801 -268.972)" fill="#096dd9"/>
      <path id="Trazado_32" data-name="Trazado 32" d="M-284.05,287.572a6.147,6.147,0,0,1,2.306.382,3.738,3.738,0,0,1,1.513,1.078,4.2,4.2,0,0,1,.818,1.657,8.6,8.6,0,0,1,.244,2.117v8.546l-.818.144q-.525.092-1.183.171t-1.428.144q-.769.065-1.525.066a7.786,7.786,0,0,1-1.977-.237,4.279,4.279,0,0,1-1.562-.749,3.39,3.39,0,0,1-1.025-1.354,5.053,5.053,0,0,1-.366-2.025,4.142,4.142,0,0,1,.427-1.946,3.563,3.563,0,0,1,1.159-1.315,5.158,5.158,0,0,1,1.708-.736,8.677,8.677,0,0,1,2.05-.236,6.654,6.654,0,0,1,.708.039c.244.026.476.062.7.105s.41.083.573.118.277.062.342.079v-.684a5.931,5.931,0,0,0-.122-1.2,2.845,2.845,0,0,0-.44-1.052,2.259,2.259,0,0,0-.866-.736,3.183,3.183,0,0,0-1.428-.276,9.99,9.99,0,0,0-1.964.171,6.5,6.5,0,0,0-1.257.356l-.269-2.025a6.6,6.6,0,0,1,1.464-.407A11.752,11.752,0,0,1-284.05,287.572Zm.2,12.253q.806,0,1.428-.039a5.834,5.834,0,0,0,1.037-.145v-4.076a2.755,2.755,0,0,0-.793-.224,8.222,8.222,0,0,0-1.33-.092,7.988,7.988,0,0,0-1.086.079,3.167,3.167,0,0,0-1.049.328,2.293,2.293,0,0,0-.793.684,1.9,1.9,0,0,0-.317,1.144,2.019,2.019,0,0,0,.781,1.827A3.827,3.827,0,0,0-283.854,299.825Z" transform="translate(329.706 -281.183)" fill="#096dd9"/>
      <path id="Trazado_33" data-name="Trazado 33" d="M-248.254,299.825a4.19,4.19,0,0,0,2.062-.394,1.354,1.354,0,0,0,.671-1.262,1.723,1.723,0,0,0-.659-1.42,10.225,10.225,0,0,0-2.172-1.183q-.732-.315-1.4-.644a4.862,4.862,0,0,1-1.159-.776,3.356,3.356,0,0,1-.781-1.078,3.666,3.666,0,0,1-.293-1.551,3.594,3.594,0,0,1,1.245-2.879,5.047,5.047,0,0,1,3.392-1.065,8.874,8.874,0,0,1,1.074.066q.536.066,1,.158t.818.2q.354.106.549.184l-.415,2.1a5.5,5.5,0,0,0-1.147-.434,6.92,6.92,0,0,0-1.879-.223,3.267,3.267,0,0,0-1.659.408,1.368,1.368,0,0,0-.708,1.275,1.851,1.851,0,0,0,.159.789,1.79,1.79,0,0,0,.488.618,3.971,3.971,0,0,0,.818.513q.488.236,1.171.5.9.368,1.611.723a5,5,0,0,1,1.208.828,3.186,3.186,0,0,1,.769,1.143,4.444,4.444,0,0,1,.268,1.643,3.35,3.35,0,0,1-1.306,2.866,6.137,6.137,0,0,1-3.722.973,9.069,9.069,0,0,1-2.635-.3,12.914,12.914,0,0,1-1.293-.46l.415-2.1q.39.158,1.245.473A6.692,6.692,0,0,0-248.254,299.825Z" transform="translate(305.501 -281.183)" fill="#096dd9"/>
    </g>
    <path id="Trazado_558" data-name="Trazado 558" d="M440.319,431.284s-3.7,7.156-10.2,7.156c-10.638,0-12.564-8.338-13.451-12.064a3.227,3.227,0,0,0,1.991-.075,3.6,3.6,0,0,0,1.438-1.4s2.914,5.558,8.338,5.558c5.467,0,9.048-7.273,9.048-7.273a3.642,3.642,0,0,0,5.677,0s3.581,7.273,9.047,7.273c5.424,0,8.338-5.558,8.338-5.558a3.6,3.6,0,0,0,1.438,1.4,3.227,3.227,0,0,0,1.991.075c-.887,3.726-2.813,12.064-13.451,12.064C444.016,438.44,440.319,431.284,440.319,431.284Z" transform="translate(-390.978 -375.595)" fill="#13c2c2"/>
    <path id="Trazado_560" data-name="Trazado 560" d="M437.181,387.174c-.98-2.487-3.985-8.818-10.7-8.818A8.085,8.085,0,0,0,420,382.23,12.84,12.84,0,0,0,418.489,388c-.075.829-.37,3.543-1.432,3.543-1.206,0-1.658-3.015-1.658-4.673a21.5,21.5,0,0,1,1.9-9c2.463-4.8,6.312-7.868,12.335-7.5,6.5.393,9.9,7.16,9.9,7.16s3.382-6.768,9.884-7.16c6.023-.363,9.872,2.708,12.334,7.5a21.5,21.5,0,0,1,1.9,9c0,1.658-.452,4.673-1.658,4.673-1.062,0-1.357-2.713-1.432-3.543a12.839,12.839,0,0,0-1.512-5.773,8.084,8.084,0,0,0-6.477-3.874c-6.718,0-9.723,6.331-10.7,8.818s-1.851,2.713-2.345,2.713C438.959,389.887,438.161,389.661,437.181,387.174Z" transform="translate(-390.185 -342.492)" fill="#096dd9"/>
  </g>
</svg>
